<?xml version="1.0" encoding="utf-8"?>
<!-- Generator: Adobe Illustrator 26.0.1, SVG Export Plug-In . SVG Version: 6.00 Build 0)  -->
<svg version="1.1" id="Layer_1" xmlns="http://www.w3.org/2000/svg" xmlns:xlink="http://www.w3.org/1999/xlink" x="0px" y="0px"
	 viewBox="0 0 1280 260.5" style="enable-background:new 0 0 1280 260.5;" xml:space="preserve">
<style type="text/css">
	.st0{fill:url(#SVGID_1_);}
	.st1{fill:url(#SVGID_00000002374473391331513350000003482978487867730310_);}
	.st2{fill:url(#SVGID_00000025416923880457754070000009589379165596283316_);}
	.st3{fill:url(#SVGID_00000117637349323631228080000011651830931167391412_);}
	.st4{fill:url(#SVGID_00000021808911392048971250000005157865938556775866_);}
	.st5{fill:url(#SVGID_00000176043530075752300960000004277350750399686050_);}
	.st6{fill:url(#SVGID_00000139996062350018398200000009117138418801888679_);}
	.st7{fill:url(#SVGID_00000030445307010092173370000004625528510506449312_);}
	.st8{fill:url(#SVGID_00000091723254722338431480000015863008764506539433_);}
	.st9{fill:url(#SVGID_00000121961935170366010550000013336164982196772764_);}
	.st10{fill:url(#SVGID_00000075862043321042883390000003114890624569354386_);}
	.st11{fill:url(#SVGID_00000160169131901662906270000001141897879441594542_);}
	.st12{fill:url(#SVGID_00000151513737877367386970000004066166481960561051_);}
	.st13{fill:url(#SVGID_00000077307517116250960200000009967968161111376003_);}
	.st14{fill:url(#SVGID_00000042706014875254549880000010104298643187848578_);}
	.st15{fill:url(#SVGID_00000055678630058760438120000006673578700399289485_);}
	.st16{fill:url(#SVGID_00000053542137077648229120000013026432623854158221_);}
	.st17{fill:url(#SVGID_00000111912131700433236520000003744311413811392409_);}
	.st18{fill:url(#SVGID_00000000929034432909314710000012050540296074143911_);}
	.st19{fill:url(#SVGID_00000114756421596019667960000011169999034619544467_);}
	.st20{fill:url(#SVGID_00000159428731016641212440000015732625655748955540_);}
	.st21{fill:url(#SVGID_00000149370168469784195310000009019467308361987458_);}
	.st22{fill:url(#SVGID_00000073704824319907640590000014247882281253144755_);}
	.st23{fill:url(#SVGID_00000106851835981150492410000004482712440869999772_);}
	.st24{fill:url(#SVGID_00000083052803335640260230000009242965133873606563_);}
	.st25{fill:url(#SVGID_00000179607731782720673790000005399607609587070631_);}
	.st26{fill:url(#SVGID_00000155849040341624960640000001828211786683165842_);}
	.st27{fill:#FFFFFF;}
</style>
<g>
	<g>
		<linearGradient id="SVGID_1_" gradientUnits="userSpaceOnUse" x1="10.0959" y1="93.8411" x2="835.4453" y2="93.8411">
			<stop  offset="0" style="stop-color:#CB268E"/>
			<stop  offset="1" style="stop-color:#5952A1"/>
		</linearGradient>
		<path class="st0" d="M29,159.4H9.6L52.1,28.3h19.1L29,159.4z"/>
	</g>
	<g>
		
			<linearGradient id="SVGID_00000068670299362545018310000005999464628238811306_" gradientUnits="userSpaceOnUse" x1="10.0959" y1="104.9879" x2="835.4453" y2="104.9879">
			<stop  offset="0" style="stop-color:#CB268E"/>
			<stop  offset="1" style="stop-color:#5952A1"/>
		</linearGradient>
		<path style="fill:url(#SVGID_00000068670299362545018310000005999464628238811306_);" d="M98.4,126.6c4.6,0,8-0.3,10.5-1
			s3.6-2,3.6-4c0-1.3-0.4-2.4-1.1-3.3c-0.8-0.9-1.8-1.7-3.2-2.3c-1.4-0.7-2.9-1.3-4.7-1.9c-1.8-0.6-3.6-1.2-5.5-1.8
			c-2.7-0.8-5.5-1.7-8.3-2.8c-2.8-1.1-5.4-2.4-7.7-4c-2.3-1.6-4.2-3.7-5.8-6.1c-1.5-2.5-2.3-5.6-2.3-9.3c0-3,0.6-5.9,1.7-8.6
			s3-5.1,5.5-7.1c2.5-2.1,5.6-3.7,9.5-4.9c3.8-1.2,8.4-1.7,13.8-1.7c4.6,0,9,0.4,13,1.1c4,0.7,7.5,1.7,10.4,3l-2.9,15.8
			c-1.7-0.5-4.4-1.3-8-2.5c-3.6-1.2-7.7-1.7-12.3-1.7c-4.8,0-8,0.6-9.6,1.7c-1.7,1.2-2.5,2.4-2.5,3.7c0,1.1,0.4,2.1,1.1,3
			c0.8,0.9,1.8,1.6,3,2.4c1.3,0.7,2.7,1.4,4.4,2s3.5,1.3,5.4,1.9c2.7,0.9,5.6,1.9,8.5,3c2.9,1.1,5.6,2.5,8,4.2
			c2.4,1.7,4.3,3.8,5.8,6.4c1.5,2.6,2.3,5.7,2.3,9.5c0,2.9-0.6,5.7-1.7,8.3c-1.1,2.6-3,4.9-5.5,6.8s-5.9,3.4-10.1,4.5
			c-4.1,1.1-9.3,1.7-15.3,1.7c-6.2,0-11.4-0.7-15.8-2.1c-4.4-1.4-7.8-2.7-10.5-3.8l2.9-15.6c3.5,1.4,7.3,2.7,11.3,3.9
			C90.2,126,94.2,126.6,98.4,126.6z"/>
	</g>
	<g>
		
			<linearGradient id="SVGID_00000176014382365639932650000012750585986052184233_" gradientUnits="userSpaceOnUse" x1="10.0959" y1="104.9879" x2="835.4453" y2="104.9879">
			<stop  offset="0" style="stop-color:#CB268E"/>
			<stop  offset="1" style="stop-color:#5952A1"/>
		</linearGradient>
		<path style="fill:url(#SVGID_00000176014382365639932650000012750585986052184233_);" d="M140.5,105.7c0-6.3,1-11.8,2.9-16.5
			c1.9-4.8,4.4-8.7,7.6-11.9s6.7-5.6,10.8-7.2c4-1.6,8.2-2.4,12.4-2.4c10.5,0,18.5,3.1,24,9.3c5.5,6.2,8.2,15.3,8.2,27.2
			c0,1.2,0,2.5-0.1,3.8c-0.1,1.3-0.1,2.4-0.2,3.2h-46.3c0,4.7,1.9,8.3,5.8,11c3.8,2.7,8.8,4,14.9,4c3.7,0,7.3-0.4,10.7-1.2
			c3.4-0.8,6.2-1.6,8.6-2.4l2.6,15.9c-3.2,1.1-6.7,2-10.3,2.8c-3.6,0.8-7.7,1.1-12.3,1.1c-6.1,0-11.5-0.8-16.3-2.3
			c-4.8-1.6-8.9-3.9-12.3-7c-3.4-3.1-6-6.9-7.8-11.5C141.4,117,140.5,111.7,140.5,105.7z M188.3,98.2c0-1.9-0.3-3.8-0.8-5.5
			c-0.5-1.8-1.3-3.4-2.4-4.8c-1.1-1.4-2.5-2.6-4.2-3.4c-1.7-0.9-3.8-1.3-6.4-1.3c-2.4,0-4.5,0.4-6.3,1.2c-1.8,0.8-3.2,1.9-4.4,3.3
			c-1.2,1.4-2.1,3-2.7,4.9c-0.7,1.8-1.1,3.7-1.3,5.6H188.3z"/>
	</g>
	<g>
		
			<linearGradient id="SVGID_00000142894897627420936060000018212345683575758762_" gradientUnits="userSpaceOnUse" x1="10.0959" y1="104.3801" x2="835.4453" y2="104.3801">
			<stop  offset="0" style="stop-color:#CB268E"/>
			<stop  offset="1" style="stop-color:#5952A1"/>
		</linearGradient>
		<path style="fill:url(#SVGID_00000142894897627420936060000018212345683575758762_);" d="M273.8,88.4c-1.2-0.3-2.7-0.6-4.3-0.9
			c-1.7-0.3-3.4-0.6-5.1-0.8c-1.7-0.2-3.4-0.4-5-0.5c-1.6-0.1-3-0.1-4.1-0.1c-2.6,0-5.2,0.1-7.7,0.4c-2.5,0.3-5.1,0.7-7.7,1.4v52.9
			H221V74.1c5-1.8,10-3.3,15.2-4.4c5.2-1.1,11.3-1.7,18.3-1.7c1,0,2.5,0.1,4.3,0.2c1.9,0.1,3.9,0.3,6,0.5s4.3,0.6,6.4,0.9
			c2.2,0.4,4.1,0.8,5.8,1.4L273.8,88.4z"/>
	</g>
	<g>
		
			<linearGradient id="SVGID_00000089551353025378990380000007095287581149591985_" gradientUnits="userSpaceOnUse" x1="10.0959" y1="105.0641" x2="835.4453" y2="105.0641">
			<stop  offset="0" style="stop-color:#CB268E"/>
			<stop  offset="1" style="stop-color:#5952A1"/>
		</linearGradient>
		<path style="fill:url(#SVGID_00000089551353025378990380000007095287581149591985_);" d="M312.1,140.7c-4.6-9-9.2-19.5-13.9-31.6
			c-4.7-12.1-9.2-25.3-13.4-39.7h19.6c0.9,3.8,2,7.9,3.3,12.3c1.3,4.3,2.6,8.7,4,13.1c1.4,4.4,2.9,8.7,4.3,12.8
			c1.5,4.1,2.9,7.9,4.2,11.4c1.3-3.4,2.8-7.2,4.4-11.4c1.6-4.1,3.2-8.4,4.8-12.8c1.6-4.4,3.1-8.8,4.6-13.1c1.5-4.3,2.7-8.4,3.6-12.3
			h19c-4.2,14.4-8.9,27.6-14.1,39.7c-5.2,12.1-10,22.6-14.6,31.6H312.1z"/>
	</g>
	<g>
		
			<linearGradient id="SVGID_00000137823547676709618960000002968470689260251806_" gradientUnits="userSpaceOnUse" x1="10.0959" y1="104.9879" x2="835.4453" y2="104.9879">
			<stop  offset="0" style="stop-color:#CB268E"/>
			<stop  offset="1" style="stop-color:#5952A1"/>
		</linearGradient>
		<path style="fill:url(#SVGID_00000137823547676709618960000002968470689260251806_);" d="M359.1,105.7c0-6.3,1-11.8,2.9-16.5
			c1.9-4.8,4.4-8.7,7.6-11.9s6.7-5.6,10.8-7.2c4-1.6,8.2-2.4,12.4-2.4c10.5,0,18.5,3.1,24,9.3c5.5,6.2,8.2,15.3,8.2,27.2
			c0,1.2,0,2.5-0.1,3.8c-0.1,1.3-0.1,2.4-0.2,3.2h-46.3c0,4.7,1.9,8.3,5.8,11c3.8,2.7,8.8,4,14.9,4c3.7,0,7.3-0.4,10.7-1.2
			c3.4-0.8,6.2-1.6,8.6-2.4l2.6,15.9c-3.2,1.1-6.7,2-10.3,2.8c-3.6,0.8-7.7,1.1-12.3,1.1c-6.1,0-11.5-0.8-16.3-2.3
			c-4.8-1.6-8.9-3.9-12.3-7c-3.4-3.1-6-6.9-7.8-11.5C360,117,359.1,111.7,359.1,105.7z M406.9,98.2c0-1.9-0.3-3.8-0.8-5.5
			c-0.5-1.8-1.3-3.4-2.4-4.8c-1.1-1.4-2.5-2.6-4.2-3.4c-1.7-0.9-3.8-1.3-6.4-1.3c-2.4,0-4.5,0.4-6.3,1.2c-1.8,0.8-3.2,1.9-4.4,3.3
			c-1.2,1.4-2.1,3-2.7,4.9c-0.7,1.8-1.1,3.7-1.3,5.6H406.9z"/>
	</g>
	<g>
		
			<linearGradient id="SVGID_00000142894238990673766710000006771857437759352492_" gradientUnits="userSpaceOnUse" x1="10.0959" y1="104.3801" x2="835.4453" y2="104.3801">
			<stop  offset="0" style="stop-color:#CB268E"/>
			<stop  offset="1" style="stop-color:#5952A1"/>
		</linearGradient>
		<path style="fill:url(#SVGID_00000142894238990673766710000006771857437759352492_);" d="M492.4,88.4c-1.2-0.3-2.7-0.6-4.3-0.9
			c-1.7-0.3-3.4-0.6-5.1-0.8c-1.7-0.2-3.4-0.4-5-0.5c-1.6-0.1-3-0.1-4.1-0.1c-2.6,0-5.2,0.1-7.7,0.4c-2.5,0.3-5.1,0.7-7.7,1.4v52.9
			h-18.8V74.1c5-1.8,10-3.3,15.2-4.4c5.2-1.1,11.3-1.7,18.3-1.7c1,0,2.5,0.1,4.3,0.2c1.9,0.1,3.9,0.3,6,0.5s4.3,0.6,6.4,0.9
			c2.2,0.4,4.1,0.8,5.8,1.4L492.4,88.4z"/>
	</g>
	<g>
		
			<linearGradient id="SVGID_00000136388682001492080020000001627415893710269330_" gradientUnits="userSpaceOnUse" x1="10.0959" y1="89.3645" x2="835.4453" y2="89.3645">
			<stop  offset="0" style="stop-color:#CB268E"/>
			<stop  offset="1" style="stop-color:#5952A1"/>
		</linearGradient>
		<path style="fill:url(#SVGID_00000136388682001492080020000001627415893710269330_);" d="M560.2,137.7c-0.3,0.2-1,0.6-2,1.1
			c-1.1,0.5-2.5,1-4.2,1.6c-1.7,0.6-3.8,1-6.3,1.4c-2.5,0.4-5.3,0.6-8.4,0.6c-8.6,0-14.9-2.6-18.8-7.7c-3.9-5.1-5.9-12.6-5.9-22.4
			V51.8h-19.7V36.4h38.4v77.4c0,4.9,1,8.1,2.9,9.9c1.9,1.7,4.3,2.6,7.3,2.6c3.7,0,6.9-0.5,9.4-1.5c2.5-1,4.2-1.7,5-2L560.2,137.7z"
			/>
	</g>
	<g>
		
			<linearGradient id="SVGID_00000000200257930826214250000015360370363387963807_" gradientUnits="userSpaceOnUse" x1="10.0959" y1="104.9879" x2="835.4453" y2="104.9879">
			<stop  offset="0" style="stop-color:#CB268E"/>
			<stop  offset="1" style="stop-color:#5952A1"/>
		</linearGradient>
		<path style="fill:url(#SVGID_00000000200257930826214250000015360370363387963807_);" d="M566,105.7c0-6.3,1-11.8,2.9-16.5
			c1.9-4.8,4.4-8.7,7.6-11.9s6.7-5.6,10.8-7.2c4-1.6,8.2-2.4,12.4-2.4c10.5,0,18.5,3.1,24,9.3c5.5,6.2,8.2,15.3,8.2,27.2
			c0,1.2,0,2.5-0.1,3.8c-0.1,1.3-0.1,2.4-0.2,3.2h-46.3c0,4.7,1.9,8.3,5.8,11c3.8,2.7,8.8,4,14.9,4c3.7,0,7.3-0.4,10.7-1.2
			c3.4-0.8,6.2-1.6,8.6-2.4l2.6,15.9c-3.2,1.1-6.7,2-10.3,2.8c-3.6,0.8-7.7,1.1-12.3,1.1c-6.1,0-11.5-0.8-16.3-2.3
			c-4.8-1.6-8.9-3.9-12.3-7c-3.4-3.1-6-6.9-7.8-11.5C566.9,117,566,111.7,566,105.7z M613.8,98.2c0-1.9-0.3-3.8-0.8-5.5
			c-0.5-1.8-1.3-3.4-2.4-4.8c-1.1-1.4-2.5-2.6-4.2-3.4c-1.7-0.9-3.8-1.3-6.4-1.3c-2.4,0-4.5,0.4-6.3,1.2c-1.8,0.8-3.2,1.9-4.4,3.3
			c-1.2,1.4-2.1,3-2.7,4.9c-0.7,1.8-1.1,3.7-1.3,5.6H613.8z"/>
	</g>
	<g>
		
			<linearGradient id="SVGID_00000116954459704991731050000005002766453791578497_" gradientUnits="userSpaceOnUse" x1="10.0959" y1="104.9879" x2="835.4453" y2="104.9879">
			<stop  offset="0" style="stop-color:#CB268E"/>
			<stop  offset="1" style="stop-color:#5952A1"/>
		</linearGradient>
		<path style="fill:url(#SVGID_00000116954459704991731050000005002766453791578497_);" d="M668.1,126.6c4.5,0,8-0.3,10.5-1
			c2.4-0.7,3.6-2,3.6-4c0-1.3-0.4-2.4-1.1-3.3c-0.8-0.9-1.8-1.7-3.2-2.3c-1.4-0.7-2.9-1.3-4.7-1.9c-1.8-0.6-3.6-1.2-5.5-1.8
			c-2.7-0.8-5.5-1.7-8.3-2.8c-2.8-1.1-5.4-2.4-7.7-4c-2.3-1.6-4.2-3.7-5.8-6.1c-1.5-2.5-2.3-5.6-2.3-9.3c0-3,0.6-5.9,1.7-8.6
			s3-5.1,5.5-7.1c2.5-2.1,5.6-3.7,9.5-4.9c3.8-1.2,8.4-1.7,13.8-1.7c4.6,0,9,0.4,13,1.1c4,0.7,7.5,1.7,10.4,3l-2.9,15.8
			c-1.7-0.5-4.4-1.3-8-2.5c-3.6-1.2-7.7-1.7-12.3-1.7c-4.8,0-8,0.6-9.6,1.7c-1.7,1.2-2.5,2.4-2.5,3.7c0,1.1,0.4,2.1,1.1,3
			c0.8,0.9,1.8,1.6,3,2.4c1.3,0.7,2.7,1.4,4.4,2c1.7,0.7,3.5,1.3,5.4,1.9c2.7,0.9,5.6,1.9,8.5,3c2.9,1.1,5.6,2.5,8,4.2
			c2.4,1.7,4.3,3.8,5.8,6.4s2.3,5.7,2.3,9.5c0,2.9-0.6,5.7-1.7,8.3c-1.1,2.6-3,4.9-5.5,6.8c-2.6,1.9-5.9,3.4-10.1,4.5
			c-4.1,1.1-9.2,1.7-15.3,1.7c-6.2,0-11.4-0.7-15.8-2.1c-4.3-1.4-7.8-2.7-10.5-3.8l2.9-15.6c3.5,1.4,7.3,2.7,11.3,3.9
			C659.8,126,663.9,126.6,668.1,126.6z"/>
	</g>
	<g>
		
			<linearGradient id="SVGID_00000121237588856327786250000011870960928708199065_" gradientUnits="userSpaceOnUse" x1="10.0959" y1="104.9879" x2="835.4453" y2="104.9879">
			<stop  offset="0" style="stop-color:#CB268E"/>
			<stop  offset="1" style="stop-color:#5952A1"/>
		</linearGradient>
		<path style="fill:url(#SVGID_00000121237588856327786250000011870960928708199065_);" d="M737.7,126.6c4.5,0,8-0.3,10.5-1
			c2.4-0.7,3.6-2,3.6-4c0-1.3-0.4-2.4-1.1-3.3c-0.8-0.9-1.8-1.7-3.2-2.3c-1.4-0.7-2.9-1.3-4.7-1.9c-1.8-0.6-3.6-1.2-5.5-1.8
			c-2.7-0.8-5.5-1.7-8.3-2.8c-2.8-1.1-5.4-2.4-7.7-4c-2.3-1.6-4.2-3.7-5.8-6.1c-1.5-2.5-2.3-5.6-2.3-9.3c0-3,0.6-5.9,1.7-8.6
			s3-5.1,5.5-7.1c2.5-2.1,5.6-3.7,9.5-4.9c3.8-1.2,8.4-1.7,13.8-1.7c4.6,0,9,0.4,13,1.1c4,0.7,7.5,1.7,10.4,3l-2.9,15.8
			c-1.7-0.5-4.4-1.3-8-2.5c-3.6-1.2-7.7-1.7-12.3-1.7c-4.8,0-8,0.6-9.6,1.7c-1.7,1.2-2.5,2.4-2.5,3.7c0,1.1,0.4,2.1,1.1,3
			c0.8,0.9,1.8,1.6,3,2.4c1.3,0.7,2.7,1.4,4.4,2s3.5,1.3,5.4,1.9c2.7,0.9,5.6,1.9,8.5,3c2.9,1.1,5.6,2.5,8,4.2
			c2.4,1.7,4.3,3.8,5.8,6.4c1.5,2.6,2.3,5.7,2.3,9.5c0,2.9-0.6,5.7-1.7,8.3c-1.1,2.6-3,4.9-5.5,6.8s-5.9,3.4-10.1,4.5
			c-4.1,1.1-9.2,1.7-15.3,1.7c-6.2,0-11.4-0.7-15.8-2.1s-7.8-2.7-10.5-3.8l2.9-15.6c3.5,1.4,7.3,2.7,11.3,3.9
			C729.5,126,733.6,126.6,737.7,126.6z"/>
	</g>
	<g>
		
			<linearGradient id="SVGID_00000110454878787898493830000017130428242512418694_" gradientUnits="userSpaceOnUse" x1="10.0959" y1="93.8411" x2="835.4453" y2="93.8411">
			<stop  offset="0" style="stop-color:#CB268E"/>
			<stop  offset="1" style="stop-color:#5952A1"/>
		</linearGradient>
		<path style="fill:url(#SVGID_00000110454878787898493830000017130428242512418694_);" d="M795.5,159.4h-19.4l42.5-131.1h19.1
			L795.5,159.4z"/>
	</g>
	<g>
		
			<linearGradient id="SVGID_00000101815507933832740790000005664907338031263408_" gradientUnits="userSpaceOnUse" x1="828.6035" y1="93.4962" x2="1270.374" y2="93.4962">
			<stop  offset="0" style="stop-color:#CB268E"/>
			<stop  offset="1" style="stop-color:#5952A1"/>
		</linearGradient>
		<polygon style="fill:url(#SVGID_00000101815507933832740790000005664907338031263408_);" points="1231.8,160.4 828.6,160.4 
			867.2,26.6 1270.4,26.6 		"/>
	</g>
	<g>
		
			<linearGradient id="SVGID_00000182491000294713038710000004025997084796996236_" gradientUnits="userSpaceOnUse" x1="78.6005" y1="160.4149" x2="749.7828" y2="160.4149">
			<stop  offset="0" style="stop-color:#CB268E"/>
			<stop  offset="1" style="stop-color:#5952A1"/>
		</linearGradient>
		<path style="fill:url(#SVGID_00000182491000294713038710000004025997084796996236_);" d="M750.1,164.9h-31.2c-2.5,0-4.5-2-4.5-4.5
			c0-2.5,2-4.5,4.5-4.5h31.2c2.5,0,4.5,2,4.5,4.5C754.6,162.9,752.6,164.9,750.1,164.9z M692.1,164.9h-31.2c-2.5,0-4.5-2-4.5-4.5
			c0-2.5,2-4.5,4.5-4.5h31.2c2.5,0,4.5,2,4.5,4.5C696.6,162.9,694.6,164.9,692.1,164.9z M634.1,164.9h-31.2c-2.5,0-4.5-2-4.5-4.5
			c0-2.5,2-4.5,4.5-4.5h31.2c2.5,0,4.5,2,4.5,4.5C638.6,162.9,636.6,164.9,634.1,164.9z M576.1,164.9h-31.2c-2.5,0-4.5-2-4.5-4.5
			c0-2.5,2-4.5,4.5-4.5h31.2c2.5,0,4.5,2,4.5,4.5C580.6,162.9,578.6,164.9,576.1,164.9z M518.1,164.9h-31.2c-2.5,0-4.5-2-4.5-4.5
			c0-2.5,2-4.5,4.5-4.5h31.2c2.5,0,4.5,2,4.5,4.5C522.6,162.9,520.6,164.9,518.1,164.9z M460.2,164.9h-31.2c-2.5,0-4.5-2-4.5-4.5
			c0-2.5,2-4.5,4.5-4.5h31.2c2.5,0,4.5,2,4.5,4.5C464.6,162.9,462.6,164.9,460.2,164.9z M402.2,164.9h-31.2c-2.5,0-4.5-2-4.5-4.5
			c0-2.5,2-4.5,4.5-4.5h31.2c2.5,0,4.5,2,4.5,4.5C406.6,162.9,404.6,164.9,402.2,164.9z M344.2,164.9h-31.2c-2.5,0-4.5-2-4.5-4.5
			c0-2.5,2-4.5,4.5-4.5h31.2c2.5,0,4.5,2,4.5,4.5C348.6,162.9,346.6,164.9,344.2,164.9z M286.2,164.9h-31.2c-2.5,0-4.5-2-4.5-4.5
			c0-2.5,2-4.5,4.5-4.5h31.2c2.5,0,4.5,2,4.5,4.5C290.6,162.9,288.6,164.9,286.2,164.9z M228.2,164.9h-31.2c-2.5,0-4.5-2-4.5-4.5
			c0-2.5,2-4.5,4.5-4.5h31.2c2.5,0,4.5,2,4.5,4.5C232.6,162.9,230.6,164.9,228.2,164.9z M170.2,164.9h-31.2c-2.5,0-4.5-2-4.5-4.5
			c0-2.5,2-4.5,4.5-4.5h31.2c2.5,0,4.5,2,4.5,4.5C174.6,162.9,172.6,164.9,170.2,164.9z M112.2,164.9H80.9c-2.5,0-4.5-2-4.5-4.5
			c0-2.5,2-4.5,4.5-4.5h31.2c2.5,0,4.5,2,4.5,4.5C116.6,162.9,114.6,164.9,112.2,164.9z"/>
	</g>
	<g>
		
			<linearGradient id="SVGID_00000029023170839379730370000018440242775004619179_" gradientUnits="userSpaceOnUse" x1="79.0949" y1="209.0084" x2="747.595" y2="209.0084">
			<stop  offset="0" style="stop-color:#CB268E"/>
			<stop  offset="1" style="stop-color:#5952A1"/>
		</linearGradient>
		<path style="fill:url(#SVGID_00000029023170839379730370000018440242775004619179_);" d="M117.7,233.8l-3.1-8.4H93.3l-3.1,8.4h-12
			l19.1-49.6h13.2l19.1,49.6H117.7z M104,194.8l-7.7,21.3h15.5L104,194.8z"/>
	</g>
	<g>
		
			<linearGradient id="SVGID_00000137842572001537149890000014994160009574500523_" gradientUnits="userSpaceOnUse" x1="79.0949" y1="209.0084" x2="747.595" y2="209.0084">
			<stop  offset="0" style="stop-color:#CB268E"/>
			<stop  offset="1" style="stop-color:#5952A1"/>
		</linearGradient>
		<path style="fill:url(#SVGID_00000137842572001537149890000014994160009574500523_);" d="M168.2,233.8v-20.9h-23.4v20.9h-10.6
			v-49.6h10.6v19.5h23.4v-19.5h10.6v49.6H168.2z"/>
	</g>
	<g>
		
			<linearGradient id="SVGID_00000124146181921305596280000011975157510836950668_" gradientUnits="userSpaceOnUse" x1="79.0949" y1="209.0084" x2="747.595" y2="209.0084">
			<stop  offset="0" style="stop-color:#CB268E"/>
			<stop  offset="1" style="stop-color:#5952A1"/>
		</linearGradient>
		<path style="fill:url(#SVGID_00000124146181921305596280000011975157510836950668_);" d="M231.9,233.8V198l-14,35.8h-4.6l-14-35.8
			v35.8h-10.6v-49.6h14.8l12,31l12-31h14.9v49.6H231.9z"/>
	</g>
	<g>
		
			<linearGradient id="SVGID_00000002361861971701914960000004719198324301911956_" gradientUnits="userSpaceOnUse" x1="79.0949" y1="209.0084" x2="747.595" y2="209.0084">
			<stop  offset="0" style="stop-color:#CB268E"/>
			<stop  offset="1" style="stop-color:#5952A1"/>
		</linearGradient>
		<path style="fill:url(#SVGID_00000002361861971701914960000004719198324301911956_);" d="M252.6,233.8v-49.6h35.1v9.3h-24.5v10.4
			h24v9.3h-24v11.3h24.5v9.3H252.6z"/>
	</g>
	<g>
		
			<linearGradient id="SVGID_00000051377339891954774960000012616125098395619988_" gradientUnits="userSpaceOnUse" x1="79.0949" y1="209.0084" x2="747.595" y2="209.0084">
			<stop  offset="0" style="stop-color:#CB268E"/>
			<stop  offset="1" style="stop-color:#5952A1"/>
		</linearGradient>
		<path style="fill:url(#SVGID_00000051377339891954774960000012616125098395619988_);" d="M296.7,233.8v-49.6h19.5
			c15.5,0,26.3,9.9,26.3,24.7c0,15-10.8,24.8-26.2,24.8H296.7z M331.7,209c0-8.7-5.4-15.5-15.5-15.5h-9.1v31h9
			C326,224.5,331.7,217.4,331.7,209z"/>
	</g>
	<g>
		
			<linearGradient id="SVGID_00000045613330251468068450000007058152236020162722_" gradientUnits="userSpaceOnUse" x1="79.0949" y1="209.0084" x2="747.595" y2="209.0084">
			<stop  offset="0" style="stop-color:#CB268E"/>
			<stop  offset="1" style="stop-color:#5952A1"/>
		</linearGradient>
		<path style="fill:url(#SVGID_00000045613330251468068450000007058152236020162722_);" d="M382,233.8l-3.1-8.4h-21.3l-3.1,8.4h-12
			l19.1-49.6h13.2l19.1,49.6H382z M368.3,194.8l-7.7,21.3H376L368.3,194.8z"/>
	</g>
	<g>
		
			<linearGradient id="SVGID_00000074430871644645305250000001521436152536084915_" gradientUnits="userSpaceOnUse" x1="79.0949" y1="209.0084" x2="747.595" y2="209.0084">
			<stop  offset="0" style="stop-color:#CB268E"/>
			<stop  offset="1" style="stop-color:#5952A1"/>
		</linearGradient>
		<path style="fill:url(#SVGID_00000074430871644645305250000001521436152536084915_);" d="M398.5,233.8v-49.6h26.1
			c9.4,0,14.3,6,14.3,12.6c0,6.2-3.9,10.4-8.5,11.4c5.4,0.8,9.5,5.9,9.5,12.1c0,7.5-4.9,13.5-14.4,13.5H398.5z M428.1,198.7
			c0-3-2.2-5.2-5.8-5.2H409v10.4h13.2C425.8,203.9,428.1,201.9,428.1,198.7z M429,218.9c0-3.1-2.2-5.6-6.3-5.6H409v11.3h13.7
			C426.7,224.5,429,222.4,429,218.9z"/>
	</g>
	<g>
		
			<linearGradient id="SVGID_00000059999677782272810020000016798339302819123633_" gradientUnits="userSpaceOnUse" x1="79.0949" y1="209.0084" x2="747.595" y2="209.0084">
			<stop  offset="0" style="stop-color:#CB268E"/>
			<stop  offset="1" style="stop-color:#5952A1"/>
		</linearGradient>
		<path style="fill:url(#SVGID_00000059999677782272810020000016798339302819123633_);" d="M497.6,233.8v-49.6h19.5
			c15.5,0,26.3,9.9,26.3,24.7c0,15-10.8,24.8-26.2,24.8H497.6z M532.7,209c0-8.7-5.4-15.5-15.5-15.5h-9.1v31h9
			C527,224.5,532.7,217.4,532.7,209z"/>
	</g>
	<g>
		
			<linearGradient id="SVGID_00000028319948509351287950000003225848384948009089_" gradientUnits="userSpaceOnUse" x1="79.0949" y1="208.5781" x2="747.595" y2="208.5781">
			<stop  offset="0" style="stop-color:#CB268E"/>
			<stop  offset="1" style="stop-color:#5952A1"/>
		</linearGradient>
		<path style="fill:url(#SVGID_00000028319948509351287950000003225848384948009089_);" d="M590.4,233.1v-4.8
			c17.4-13.6,26.8-21.6,26.8-30c0-6.2-5.1-8.8-10.1-8.8c-5.8,0-10.3,2.5-13.1,6.1l-3.7-3.8c3.7-4.9,10-7.6,16.8-7.6
			c8,0,16.2,4.6,16.2,14.2c0,9.8-10,18.8-23.4,29.5h23.7v5.4H590.4z"/>
	</g>
	<g>
		
			<linearGradient id="SVGID_00000104685137643310270430000006431539932237739191_" gradientUnits="userSpaceOnUse" x1="79.0949" y1="209.0122" x2="747.595" y2="209.0122">
			<stop  offset="0" style="stop-color:#CB268E"/>
			<stop  offset="1" style="stop-color:#5952A1"/>
		</linearGradient>
		<path style="fill:url(#SVGID_00000104685137643310270430000006431539932237739191_);" d="M630.9,209c0-11.8,5.2-24.9,18.5-24.9
			c13.2,0,18.5,13.1,18.5,24.9c0,11.7-5.3,25-18.5,25C636.1,233.9,630.9,220.7,630.9,209z M661.7,209c0-9.6-3.1-19.5-12.3-19.5
			c-9.2,0-12.3,9.9-12.3,19.5c0,9.6,3.1,19.6,12.3,19.6C658.6,228.6,661.7,218.6,661.7,209z"/>
	</g>
	<g>
		
			<linearGradient id="SVGID_00000117644168518097543860000012509810805162695071_" gradientUnits="userSpaceOnUse" x1="79.0949" y1="208.5781" x2="747.595" y2="208.5781">
			<stop  offset="0" style="stop-color:#CB268E"/>
			<stop  offset="1" style="stop-color:#5952A1"/>
		</linearGradient>
		<path style="fill:url(#SVGID_00000117644168518097543860000012509810805162695071_);" d="M673.1,233.1v-4.8
			c17.4-13.6,26.8-21.6,26.8-30c0-6.2-5.1-8.8-10.1-8.8c-5.8,0-10.3,2.5-13.1,6.1l-3.7-3.8c3.7-4.9,10-7.6,16.8-7.6
			c8,0,16.2,4.6,16.2,14.2c0,9.8-10,18.8-23.4,29.5h23.7v5.4H673.1z"/>
	</g>
	<g>
		
			<linearGradient id="SVGID_00000052096496043253785920000007253000454584973196_" gradientUnits="userSpaceOnUse" x1="79.0949" y1="209.0122" x2="747.595" y2="209.0122">
			<stop  offset="0" style="stop-color:#CB268E"/>
			<stop  offset="1" style="stop-color:#5952A1"/>
		</linearGradient>
		<path style="fill:url(#SVGID_00000052096496043253785920000007253000454584973196_);" d="M713.1,226l3.5-3.8
			c2.8,3.8,7.7,6.4,13.5,6.4c7,0,11.3-3.5,11.3-9c0-6-4.9-8.5-12-8.5c-2,0-4.3,0-5,0.1v-5.5c0.8,0.1,3,0.1,5,0.1
			c6.1,0,11.2-2.4,11.2-8c0-5.4-4.9-8.2-10.8-8.2c-5.3,0-9.2,2-12.7,5.9l-3.3-3.8c3.5-4.3,9-7.5,16.6-7.5c9.3,0,16.3,4.7,16.3,12.8
			c0,7-5.9,10.5-10.3,11.2c4.3,0.4,11.1,4.1,11.1,11.9c0,8-6.5,13.9-17.2,13.9C722.1,233.9,716.1,230.3,713.1,226z"/>
	</g>
	<g>
		
			<linearGradient id="SVGID_00000151519929609650179870000004158636211357573776_" gradientUnits="userSpaceOnUse" x1="79.0949" y1="209.0084" x2="747.595" y2="209.0084">
			<stop  offset="0" style="stop-color:#CB268E"/>
			<stop  offset="1" style="stop-color:#5952A1"/>
		</linearGradient>
		<path style="fill:url(#SVGID_00000151519929609650179870000004158636211357573776_);" d="M481.1,233.8l-3.1-8.4h-21.3l-3.1,8.4
			h-12l19.1-49.6H474l19.1,49.6H481.1z M467.4,194.8l-7.7,21.3h15.5L467.4,194.8z"/>
	</g>
	<path class="st27" d="M901.1,52.9H934c26.1,0,44.2,16.6,44.2,41.7s-18.1,41.6-44.2,41.6h-32.9V52.9z M934,120.6
		c16.5,0,26.1-11.9,26.1-26c0-14.7-9-26.1-26.1-26.1h-15.1v52.1H934z"/>
	<path class="st27" d="M1040,121.9h-37.2l-5.2,14.4h-19.5l32.2-83.3h22.2l32.1,83.3h-19.4L1040,121.9z M1007.5,106.5h27.6
		l-13.7-38.2L1007.5,106.5z"/>
	<path class="st27" d="M1085.6,102.1l-32.1-49.2h20.2l20.7,33.5l20.5-33.5h20.2l-31.9,49.2v34.1h-17.7V102.1z"/>
	<path class="st27" d="M1143.4,111c5.9,6.1,15,11.2,26.5,11.2c9.7,0,14.5-4.6,14.5-9.4c0-6.2-7.2-8.4-16.9-10.6
		c-13.6-3.1-31.1-6.9-31.1-25.5c0-13.9,12-25.1,31.6-25.1c13.2,0,24.2,4,32.5,11.6l-9.9,13c-6.7-6.2-15.7-9.1-23.9-9.1
		c-8,0-12.2,3.5-12.2,8.5c0,5.6,7,7.4,16.6,9.6c13.7,3.1,31.2,7.2,31.2,25.7c0,15.2-10.9,26.7-33.4,26.7c-16,0-27.5-5.4-35.4-13.2
		L1143.4,111z"/>
</g>
</svg>
